<svg width="50" height="51" viewBox="0 0 50 51" fill="none" xmlns="http://www.w3.org/2000/svg">
<g clip-path="url(#clip0_435_3332)">
<path d="M24.8345 49.2503C28.5236 49.2503 29.6802 47.0936 29.6802 47.0936C34.6923 48.6164 38.2831 46.6916 38.2831 46.6916L38.1168 45.3311L40.619 43.8933C34.0195 18.3138 29.1964 14.0312 29.1964 14.0312H20.7976C20.7976 14.0312 15.9746 18.3138 9.375 43.8933L11.8772 45.3311L11.7109 46.6916C11.7109 46.6916 15.3018 48.6087 20.3138 47.0936C20.3138 47.0936 21.6368 49.2503 24.8345 49.2503V49.2503Z" stroke="#781710" stroke-linecap="round" stroke-linejoin="round"/>
<path d="M11.8828 45.3307C11.8828 45.3307 15.5114 30.2953 18.5202 24.2734" stroke="#781710" stroke-linecap="round" stroke-linejoin="round"/>
<path d="M20.3125 47.0938C20.3125 47.0938 21.8925 33.0016 22.1646 30.2109" stroke="#781710" stroke-linecap="round" stroke-linejoin="round"/>
<path d="M29.6904 47.092L26.2734 28.1992" stroke="#781710" stroke-linecap="round" stroke-linejoin="round"/>
<path d="M38.136 45.3308C38.136 45.3308 34.6736 33.086 32.3906 29.4219" stroke="#781710" stroke-linecap="round" stroke-linejoin="round"/>
<path d="M29.2168 12.5084C29.3151 12.5084 29.3907 12.4311 29.3907 12.3306C29.3907 10.1275 29.9879 6.81891 29.9879 6.81891L30.7817 9.625L33.7602 8.56595C33.7602 6.37829 32.8152 4.79359 32.0744 3.88914C31.6133 3.32484 30.9178 3.01562 30.1996 3.01562H27.8486C27.8486 4.01283 27.3118 6.67977 25.1346 6.67977C22.9575 6.67977 22.4585 4.01283 22.4585 3.01562H20.1075C19.3893 3.01562 18.6938 3.32484 18.2327 3.88914C17.4918 4.79359 16.5469 6.37829 16.5469 8.56595L19.5254 9.625L20.3191 6.81891C20.3191 6.81891 20.9239 10.1352 20.9164 12.3306C20.9164 12.4311 20.9919 12.5084 21.0902 12.5084H29.2093H29.2168Z" stroke="#781710" stroke-linecap="round" stroke-linejoin="round"/>
</g>
<defs>
<clipPath id="clip0_435_3332">
<rect width="32" height="47" fill="white" transform="translate(9 2.63672)"/>
</clipPath>
</defs>
</svg>
