<svg xmlns="http://www.w3.org/2000/svg" fill="none" viewBox="0 0 122 37" height="37" width="122">
<path fill="white" d="M69.6724 15.6424C69.6724 18.3892 69.1797 22.5382 67.4716 24.1743H67.4728C66.778 24.8389 65.5833 25.2083 64.4278 25.2083V0.355334H66.0526V0H59.3217V0.355334H60.6218V25.2083H59.3217V25.5636H70.1794V15.2219H69.6724V15.6424ZM9.37224 0.00197088V0.357306H8.11374V13.0573L11.8768 3.67419C12.4712 2.05857 12.4932 1.3594 12.1783 0.841736C11.8491 0.353746 11.3947 0.355306 10.8755 0.357088C10.844 0.357196 10.8122 0.357306 10.7802 0.357306V0.00197088H15.3961V0.357306C13.7173 0.64873 13.2627 1.26226 12.5986 3.13607L10.4946 8.55043L15.4953 25.2077H16.5431V25.563H10.5327V25.2077H11.7935L8.11252 13.4446V25.2077H8.98624V25.563H3.04688V25.2077H4.30533V0.357306H3.04688V0.00197088H9.37224ZM31.2496 25.5605H35.6009V25.1527C33.7579 25.0134 33.4504 23.3646 34.5299 17.1679L34.6598 16.4713H38.7023L40.0992 25.2256H38.603V25.5605H44.622V25.2256C44.622 25.2256 43.8525 25.232 43.578 25.2256C43.3635 24.3577 38.9191 0.00448081 38.9191 0.00448081H36.8557L34.1071 17.0286C33.0644 23.3646 32.5032 25.0198 31.2557 25.1591L31.2496 25.5605ZM34.7541 15.845L36.6755 4.21865C36.8618 5.61059 37.3274 8.60539 37.5688 9.96282L38.592 15.8463H34.7541V15.845ZM91.2115 0.00192035V0.357255H89.9529V13.0573L93.7159 3.67413C94.3103 2.05851 94.3327 1.35935 94.0175 0.841683C93.6881 0.353694 93.234 0.355255 92.7148 0.357037C92.683 0.357146 92.6511 0.357255 92.6193 0.357255V0.00192035H97.2349V0.357255C95.5568 0.64868 95.102 1.2622 94.4378 3.13602L92.3339 8.55043L97.3346 25.2076H98.3824V25.563H92.3732V25.2076H93.6339L89.9529 13.4445V25.2076H90.8266V25.563H84.8858V25.2076H86.1445V0.357255H84.8858V0.00192035H91.2115ZM118.948 25.5636V25.2083H117.831V0.355334H118.948V0H113.084V0.355334H114.2V25.2083H113.084V25.5636H118.948Z" clip-rule="evenodd" fill-rule="evenodd"></path>
<path fill="white" d="M35.2344 30.7476V36.3272H35.9352V33.5892H37.8886V32.9528H35.9352V31.384H37.9557V30.7476H35.2344ZM41.2345 36.3272H41.9875L42.6287 34.9286H45.2083L45.8495 36.3272H46.6025L43.9185 30.5108L41.2345 36.3272ZM43.9185 32.0352L44.9176 34.2922H42.9195L43.9185 32.0352ZM52.4113 30.6292C51.5092 30.6292 50.7562 31.2064 50.7562 32.0722C50.7562 32.8566 51.3675 33.2266 51.9789 33.4856L52.3666 33.6484C53.0674 33.9444 53.3358 34.2256 53.3358 34.7066C53.3358 35.3208 52.8735 35.7944 52.2995 35.7944C51.7179 35.7944 51.211 35.38 51.211 34.7362L50.5027 34.8842C50.6369 35.8314 51.3675 36.4456 52.2398 36.4456C53.1941 36.4456 54.0366 35.7648 54.0366 34.7066C54.0366 33.9814 53.6937 33.4264 52.6424 33.0268L52.2324 32.8714C51.7328 32.6864 51.457 32.4274 51.457 32.0722C51.457 31.5912 51.9341 31.2804 52.3964 31.2804C52.8214 31.2804 53.0898 31.458 53.2985 31.8058L53.8577 31.4728C53.552 30.9326 53.0376 30.6292 52.4113 30.6292ZM58.4735 30.7476V36.3272H59.1743V33.6484H61.8508V36.3272H62.5517V30.7476H61.8508V32.9972H59.1743V30.7476H58.4735ZM67.2696 30.7476V36.3272H67.9703V30.7476H67.2696ZM75.3025 30.6292C73.6772 30.6292 72.3576 31.9538 72.3576 33.5374C72.3576 35.1876 73.6697 36.4456 75.3025 36.4456C76.9651 36.4456 78.2474 35.1506 78.2474 33.5374C78.2474 31.8724 76.8532 30.6292 75.3025 30.6292ZM73.0584 33.5374C73.0584 32.2572 74.0425 31.2804 75.295 31.2804C76.6072 31.2804 77.5466 32.2942 77.5466 33.5374C77.5466 34.8176 76.5028 35.7944 75.3025 35.7944C74.1021 35.7944 73.0584 34.8176 73.0584 33.5374ZM82.5872 36.3272H83.2881V32.1684L87.5079 36.5566V30.7476H86.8071V34.8694L82.5872 30.4812V36.3272Z"></path>
</svg>
