<svg xmlns="http://www.w3.org/2000/svg" fill="none" viewBox="0 0 50 50" height="51" width="50"> <rect stroke="#262433" rx="4.5" height="41" width="25" y="4.5" x="12.5"></rect> <circle stroke="#262433" r="2" cy="40.5" cx="25.5"></circle> <g clip-path="url(#clip0_2_12638)"> <circle stroke-linejoin="round" stroke-linecap="round" stroke-miterlimit="10" stroke-width="1.2" stroke="#262433" r="5.4" cy="18" cx="25"></circle> <path stroke-linejoin="round" stroke-linecap="round" stroke-miterlimit="10" stroke-width="1.2" stroke="#262433" d="M34.4 33C34.4 38.1915 30.1915 42.4 25 42.4C19.8085 42.4 15.6 38.1915 15.6 33C15.6 27.8085 19.8085 23.6 25 23.6C30.1915 23.6 34.4 27.8085 34.4 33Z"></path> <path stroke="black" d="M16 31.5H34"></path> </g> <path stroke-linejoin="round" stroke-linecap="round" stroke="black" d="M8.78958 19.0132C8.42588 20.286 7.9167 23.2025 8.78958 24.686"></path> <path stroke-linejoin="round" stroke-linecap="round" stroke="black" d="M41.4067 24.6926C41.7258 23.4078 42.1329 20.4753 41.2088 19.0232"></path> <path stroke-linejoin="round" stroke-linecap="round" stroke="black" d="M7 17C6.24538 19.0193 5.1889 23.6464 7 26"></path> <path stroke-linejoin="round" stroke-linecap="round" stroke="black" d="M43.3153 26.0239C43.9272 23.9569 44.6584 19.2674 42.6875 17.0458"></path> <defs> <clipPath id="clip0_2_12638"> <rect transform="translate(15 12)" fill="white" height="20" width="20"></rect> </clipPath> </defs> </svg>