<svg width="24" height="24" viewBox="0 0 24 24" fill="none" xmlns="http://www.w3.org/2000/svg"> 
                  <path d="M12 10.3333C14.3091 10.3333 16.1809 8.46785 16.1809 6.16667C16.1809 3.86548 14.3091 2 12 2C9.69093 2 7.81906 3.86548 7.81906 6.16667C7.81906 8.46785 9.69093 10.3333 12 10.3333Z" stroke="black" stroke-width="1.5" stroke-linecap="round" stroke-linejoin="round"/> 
                  <path d="M19.9981 21.1116C20.0308 21.6013 19.6289 22 19.1363 22C17.882 22 15.3673 22 12 22C8.63264 22 6.11791 22 4.86366 22C4.37105 22 3.96915 21.6013 4.00187 21.1116C4.30554 16.5643 6.97158 13.0112 12 13.0112C17.0284 13.0112 19.6944 16.5643 19.9981 21.1116Z" stroke="black" stroke-width="1.5" stroke-linecap="round" stroke-linejoin="round"/> 
                </svg>