<svg width="50" height="51" viewBox="0 0 50 51" fill="none" xmlns="http://www.w3.org/2000/svg">
<path d="M14.011 30.8062C16.2866 30.8062 18.1314 28.8139 18.1314 26.3562C18.1314 23.8986 16.2866 21.9062 14.011 21.9062C11.7354 21.9062 9.89062 23.8986 9.89062 26.3562C9.89062 28.8139 11.7354 30.8062 14.011 30.8062Z" stroke="#781710" stroke-linecap="round" stroke-linejoin="round"/>
<path d="M20.1985 35.4447C19.2541 32.7347 16.8466 30.8047 14.0133 30.8047C11.18 30.8047 8.77257 32.7347 7.82812 35.4447" stroke="#781710" stroke-linecap="round" stroke-linejoin="round"/>
<path d="M20.3252 13.418H7.70486C6.26278 13.418 5.09375 14.6805 5.09375 16.238V44.188C5.09375 45.7454 6.26278 47.008 7.70486 47.008H20.3252C21.7673 47.008 22.9363 45.7454 22.9363 44.188V16.238C22.9363 14.6805 21.7673 13.418 20.3252 13.418Z" stroke="#781710" stroke-linecap="round" stroke-linejoin="round"/>
<path d="M42.6649 18.8867H38.9705C38.6279 18.8867 38.2853 18.9967 37.9983 19.2067L27.1001 27.0767L32.739 19.0767C32.7946 18.9967 32.739 18.8867 32.6557 18.8867H27.3594C26.3964 18.8867 25.6094 18.0367 25.6094 16.9967V7.02672C25.6094 5.98672 26.3964 5.13672 27.3594 5.13672H42.6742C43.6372 5.13672 44.4242 5.98672 44.4242 7.02672V16.9967C44.4242 18.0367 43.6372 18.8867 42.6742 18.8867H42.6649Z" stroke="#781710" stroke-linecap="round" stroke-linejoin="round"/>
<path d="M32.7109 14.776V9.57595C32.7109 8.99595 33.3035 8.63595 33.7572 8.94595L37.6554 11.546C38.0906 11.836 38.0906 12.516 37.6554 12.806L33.7572 15.406C33.3035 15.706 32.7109 15.356 32.7109 14.776V14.776Z" stroke="#781710" stroke-linecap="round" stroke-linejoin="round"/>
<path d="M14.0116 42.3991C14.7428 42.3991 15.3356 41.7588 15.3356 40.9691C15.3356 40.1793 14.7428 39.5391 14.0116 39.5391C13.2803 39.5391 12.6875 40.1793 12.6875 40.9691C12.6875 41.7588 13.2803 42.3991 14.0116 42.3991Z" stroke="#781710" stroke-linecap="round" stroke-linejoin="round"/>
</svg>
