<svg width="17" height="16" viewBox="0 0 17 16" fill="none" xmlns="http://www.w3.org/2000/svg">
            <path d="M0.878406 1.30018C0.817882 1.23966 0.769871 1.16781 0.737115 1.08873C0.704359 1.00965 0.6875 0.92489 0.6875 0.839295C0.6875 0.7537 0.704359 0.668944 0.737115 0.589864C0.769871 0.510785 0.817882 0.438931 0.878406 0.378406C0.938931 0.317882 1.01078 0.269871 1.08986 0.237115C1.16894 0.204359 1.2537 0.1875 1.3393 0.1875C1.42489 0.1875 1.50965 0.204359 1.58873 0.237115C1.66781 0.269871 1.73966 0.317882 1.80018 0.378406L8.5 7.07952L15.1998 0.378406C15.2603 0.317882 15.3322 0.269871 15.4113 0.237115C15.4904 0.204359 15.5751 0.1875 15.6607 0.1875C15.7463 0.1875 15.8311 0.204359 15.9101 0.237115C15.9892 0.269871 16.0611 0.317882 16.1216 0.378406C16.1821 0.438931 16.2301 0.510785 16.2629 0.589864C16.2956 0.668944 16.3125 0.7537 16.3125 0.839295C16.3125 0.92489 16.2956 1.00965 16.2629 1.08873C16.2301 1.16781 16.1821 1.23966 16.1216 1.30018L9.42048 8L16.1216 14.6998C16.1821 14.7603 16.2301 14.8322 16.2629 14.9113C16.2956 14.9904 16.3125 15.0751 16.3125 15.1607C16.3125 15.2463 16.2956 15.3311 16.2629 15.4101C16.2301 15.4892 16.1821 15.5611 16.1216 15.6216C16.0611 15.6821 15.9892 15.7301 15.9101 15.7629C15.8311 15.7956 15.7463 15.8125 15.6607 15.8125C15.5751 15.8125 15.4904 15.7956 15.4113 15.7629C15.3322 15.7301 15.2603 15.6821 15.1998 15.6216L8.5 8.92048L1.80018 15.6216C1.73966 15.6821 1.66781 15.7301 1.58873 15.7629C1.50965 15.7956 1.42489 15.8125 1.3393 15.8125C1.2537 15.8125 1.16894 15.7956 1.08986 15.7629C1.01078 15.7301 0.938931 15.6821 0.878406 15.6216C0.817882 15.5611 0.769871 15.4892 0.737115 15.4101C0.704359 15.3311 0.6875 15.2463 0.6875 15.1607C0.6875 15.0751 0.704359 14.9904 0.737115 14.9113C0.769871 14.8322 0.817882 14.7603 0.878406 14.6998L7.57952 8L0.878406 1.30018Z" fill="#403B39"/>
          </svg>