<svg width="24" height="24" viewBox="0 0 24 24" fill="none" xmlns="http://www.w3.org/2000/svg">
<g clip-path="url(#clip0_511_51704)">
<path d="M10.4014 9.35545C15.4545 9.35545 19.5509 7.53443 19.5509 5.28808C19.5509 3.04173 15.4545 1.2207 10.4014 1.2207C5.34831 1.2207 1.25195 3.04173 1.25195 5.28808C1.25195 7.53443 5.34831 9.35545 10.4014 9.35545Z" stroke="#262433" stroke-miterlimit="10"/>
<path d="M10.4016 7.58207C13.2521 7.58207 15.563 6.55503 15.563 5.28811C15.563 4.02118 13.2521 2.99414 10.4016 2.99414C7.55106 2.99414 5.24023 4.02118 5.24023 5.28811C5.24023 6.55503 7.55106 7.58207 10.4016 7.58207Z" stroke="#262433" stroke-miterlimit="10"/>
<path d="M1.25195 5.28906V11.2666C1.25195 13.512 5.70835 15.2855 9.06701 14.8752" stroke="#262433" stroke-miterlimit="10"/>
<path d="M19.0929 6.56672C17.3759 10.1753 10.4873 14.0353 3.59375 18.1821L9.76221 22.7789C9.76221 22.7789 14.2495 20.2 20.6842 13.5192C26.0005 7.99951 19.7073 2.5214 14.5308 1.65234" stroke="#262433" stroke-miterlimit="10"/>
<path d="M8.33203 7.32245L8.7248 3.58594C8.7248 3.58594 11.3986 5.81373 15.422 4.77703" stroke="#262433" stroke-miterlimit="10"/>
<path d="M7.23438 16.0128C7.23438 16.0128 9.97871 15.5143 11.4994 16.9039C12.8137 18.1038 12.8439 19.9655 12.6022 20.8169" stroke="#262433" stroke-miterlimit="10"/>
<path d="M8.87551 20.1063C9.63195 20.1063 10.2452 19.658 10.2452 19.1049C10.2452 18.5519 9.63195 18.1035 8.87551 18.1035C8.11907 18.1035 7.50586 18.5519 7.50586 19.1049C7.50586 19.658 8.11907 20.1063 8.87551 20.1063Z" stroke="#262433" stroke-miterlimit="10"/>
<path d="M10.3965 4.5293C10.3965 4.5293 12.0431 5.3763 11.8014 7.49822" stroke="#262433" stroke-miterlimit="10"/>
<path d="M16 13L18.2582 15.3474" stroke="#262433" stroke-miterlimit="10" stroke-linecap="round"/>
<path d="M19 10L21.5 12" stroke="#262433" stroke-miterlimit="10" stroke-linecap="round"/>
<path d="M4 14V11.5" stroke="#262433" stroke-miterlimit="10" stroke-linecap="round"/>
<path d="M7.55664 14.8924V12.6426" stroke="#262433" stroke-miterlimit="10" stroke-linecap="round"/>
</g>
<defs>
<clipPath id="clip0_511_51704">
<rect width="24" height="24" fill="white"/>
</clipPath>
</defs>
</svg>
