<svg width="24" height="24" viewBox="0 0 24 24" fill="none" xmlns="http://www.w3.org/2000/svg"> 
              <path d="M17.0001 20C18.1047 20 19.0001 19.1046 19.0001 18C19.0001 16.8954 18.1047 16 17.0001 16C15.8955 16 15.0001 16.8954 15.0001 18C15.0001 19.1046 15.8955 20 17.0001 20Z" stroke="black" stroke-width="1.5" stroke-linejoin="round"/> 
              <path d="M7.00002 20C8.10459 20 9.00002 19.1046 9.00002 18C9.00002 16.8954 8.10459 16 7.00002 16C5.89545 16 5.00002 16.8954 5.00002 18C5.00002 19.1046 5.89545 20 7.00002 20Z" stroke="black" stroke-width="1.5" stroke-linejoin="round"/> 
              <path d="M5 17.9724L2.00194 18L2.02755 14M8.99998 18H15M2 4H14V11H22V18H19" stroke="black" stroke-width="1.5" stroke-linejoin="round"/> 
              <path d="M2 8H8" stroke="black" stroke-width="1.5" stroke-linejoin="round"/> 
              <path d="M2 11H5.99998" stroke="black" stroke-width="1.5" stroke-linejoin="round"/> 
              <path d="M14 5.99998H19L22 11" stroke="black" stroke-width="1.5" stroke-linejoin="round"/> 
            </svg>