<svg width="24" height="24" viewBox="0 0 24 24" fill="none" xmlns="http://www.w3.org/2000/svg">
              <path d="M3.45365 9.87171L2.43291 7.02247C2.40532 6.94558 2.39317 6.86399 2.39714 6.78239C2.40112 6.70079 2.42114 6.62078 2.45607 6.54692C2.491 6.47307 2.54015 6.40683 2.6007 6.35199C2.66126 6.29715 2.73203 6.25479 2.80897 6.22734C2.85605 6.2115 2.90467 6.2007 2.95402 6.1951L5.88908 5.88887L6.19351 2.93218C6.20179 2.8509 6.22601 2.77205 6.26479 2.70014C6.30358 2.62823 6.35616 2.56467 6.41953 2.51311C6.4829 2.46154 6.55582 2.42298 6.63411 2.39963C6.7124 2.37628 6.79453 2.36859 6.87579 2.37702C6.91913 2.38062 6.96185 2.38964 7.00294 2.40388L9.86816 3.13992L11.53 1.21655C11.6377 1.09178 11.7904 1.01462 11.9547 1.00187C12.1191 0.989127 12.2818 1.04183 12.4075 1.1485C12.4485 1.18469 12.4852 1.22556 12.5167 1.27028L14.1284 3.44974L16.9775 2.41105C17.0549 2.38297 17.1372 2.37052 17.2195 2.37444C17.3018 2.37835 17.3825 2.39855 17.4569 2.43385C17.5314 2.46916 17.5981 2.51888 17.6532 2.58013C17.7083 2.64138 17.7507 2.71296 17.778 2.79071C17.7954 2.83865 17.8068 2.88858 17.812 2.93935L18.1164 5.89603L21.073 6.19331C21.1745 6.20359 21.272 6.23873 21.3567 6.29562C21.4415 6.35252 21.5109 6.42943 21.5589 6.51954C21.6069 6.60965 21.6319 6.71019 21.6318 6.81228C21.6317 6.91436 21.6064 7.01485 21.5583 7.10485L20.251 9.57085L22.7581 11.5103C22.8228 11.5601 22.8771 11.6223 22.9178 11.6931C22.9585 11.764 22.9847 11.8422 22.995 11.9233C23.0054 12.0044 22.9995 12.0867 22.9779 12.1655C22.9563 12.2443 22.9193 12.318 22.8691 12.3825C22.833 12.4308 22.7895 12.4731 22.7402 12.5078L20.5554 14.1321L21.5941 16.9814C21.65 17.1365 21.6422 17.3074 21.5724 17.4568C21.5026 17.6061 21.3765 17.7217 21.2216 17.7783C21.1736 17.7957 21.1237 17.8072 21.073 17.8123L18.1164 18.1168L17.812 21.0573C17.7948 21.2213 17.7134 21.3718 17.5855 21.4758C17.4576 21.5799 17.2937 21.629 17.1297 21.6125C17.0503 21.604 16.9732 21.581 16.9023 21.5444L14.431 20.2497L12.488 22.7568C12.4291 22.8339 12.3528 22.8961 12.2654 22.9383C12.178 22.9806 12.0819 23.0016 11.9848 22.9999C11.8877 22.9982 11.7924 22.9736 11.7066 22.9283C11.6208 22.883 11.5468 22.8181 11.4906 22.7389L9.86458 20.5451L7.01547 21.5731C6.92815 21.6037 6.83508 21.6145 6.74308 21.6045C6.65107 21.5946 6.56244 21.5642 6.48367 21.5157C6.4049 21.4671 6.33797 21.4015 6.28777 21.3238C6.23757 21.246 6.20537 21.1581 6.19351 21.0663L5.88908 18.423L2.88598 17.8016C2.80608 17.7853 2.73016 17.7535 2.66259 17.7079C2.59502 17.6623 2.53711 17.6038 2.4922 17.5357C2.44728 17.4677 2.41623 17.3914 2.40084 17.3114C2.38544 17.2313 2.38599 17.149 2.40247 17.0691C2.40802 17.031 2.41825 16.9937 2.43291 16.9581L3.45365 14.1339L1.25101 12.5025C1.11874 12.404 1.0309 12.2571 1.00673 12.0939C0.982563 11.9308 1.02404 11.7647 1.12207 11.6321C1.16067 11.5803 1.20721 11.535 1.25996 11.4978L3.45365 9.87171ZM14.6262 8.76138L10.9677 15.1225C10.933 15.1856 10.8929 15.2455 10.8477 15.3016C10.8076 15.3532 10.7577 15.3964 10.7009 15.4287C10.6391 15.4591 10.5724 15.4779 10.5039 15.4842C10.426 15.4934 10.3477 15.4976 10.2693 15.4968H9.57805C9.52327 15.4968 9.4707 15.4751 9.4318 15.4365C9.39289 15.398 9.3708 15.3456 9.37033 15.2908C9.3704 15.2479 9.38351 15.2061 9.40793 15.1708L13.0682 8.80257C13.102 8.73976 13.141 8.67986 13.1846 8.62349V8.61274C13.2238 8.56587 13.2712 8.52643 13.3243 8.49634C13.391 8.46671 13.4627 8.45029 13.5356 8.44799C13.6123 8.43883 13.6895 8.43465 13.7666 8.43545H14.4561C14.5109 8.43545 14.5634 8.45709 14.6023 8.49566C14.6413 8.53423 14.6633 8.58661 14.6638 8.6414C14.6637 8.68428 14.6506 8.72613 14.6262 8.76138ZM13.301 15.221C12.993 14.8986 12.8372 14.4043 12.8372 13.7381C12.8372 13.0719 12.993 12.5777 13.301 12.2553C13.6091 11.933 14.1105 11.7718 14.8053 11.7718C15.5001 11.7718 16.0015 11.933 16.3095 12.2553C16.6175 12.5777 16.7715 13.0719 16.7715 13.7381C16.7715 14.4043 16.6175 14.8986 16.3095 15.221C16.0015 15.5433 15.5001 15.7045 14.8053 15.7045C14.1105 15.7045 13.6091 15.5433 13.301 15.221ZM14.3755 13.1722V14.6049H14.6083C14.8046 14.6092 15.0008 14.5936 15.1939 14.5583C15.2333 14.5261 15.253 14.4384 15.253 14.2969V12.8642H14.7157C14.619 12.8538 14.5212 12.8699 14.4328 12.9108C14.3952 12.943 14.3755 13.0308 14.3755 13.1722ZM7.69596 11.7449C7.38795 11.4226 7.23395 10.9283 7.23395 10.2621C7.23395 9.59592 7.38795 9.10164 7.69596 8.77929C8.00397 8.45694 8.50539 8.29576 9.2002 8.29576C9.89502 8.29576 10.3964 8.45694 10.7044 8.77929C11.0125 9.10164 11.1665 9.59592 11.1665 10.2621C11.1665 10.9283 11.0125 11.4226 10.7044 11.7449C10.3964 12.0673 9.89502 12.2285 9.2002 12.2285C8.50539 12.2285 8.00397 12.0673 7.69596 11.7449ZM8.77042 9.69621V11.1289H9.30765C9.40403 11.139 9.50135 11.1223 9.5888 11.0805C9.62819 11.0483 9.64789 10.9605 9.64789 10.8191V9.38639H9.40435C9.20858 9.38157 9.01287 9.39778 8.82056 9.43474C8.78116 9.46519 8.76147 9.55294 8.76147 9.69441L8.77042 9.69621ZM3.86552 7.3502L4.7609 9.85738C4.81425 9.98577 4.82313 10.1283 4.78614 10.2623C4.74915 10.3964 4.66841 10.5142 4.55676 10.597L2.66571 12.0028L4.56392 13.4104C4.67241 13.4905 4.75201 13.6036 4.79075 13.7328C4.8295 13.8619 4.82531 14.0002 4.77881 14.1268L3.83687 16.7306L6.55167 17.2966C6.68924 17.3148 6.8168 17.3784 6.91412 17.4773C7.01144 17.5763 7.07295 17.7049 7.08889 17.8428L7.35572 20.1529L9.87174 19.2468C9.99774 19.1961 10.1369 19.1881 10.2679 19.224C10.3988 19.2599 10.5144 19.3377 10.597 19.4456L12.0135 21.3582L13.7577 19.0999C13.8449 18.977 13.9737 18.8899 14.1202 18.8547C14.2667 18.8195 14.421 18.8385 14.5546 18.9083L16.6695 20.0204L16.9381 17.4935C16.9523 17.3523 17.0144 17.2203 17.1141 17.1193C17.2138 17.0183 17.3451 16.9544 17.4861 16.9384L20.1615 16.6572L19.2303 14.1303C19.1828 14.0042 19.1777 13.866 19.2159 13.7368C19.254 13.6075 19.3332 13.4942 19.4416 13.414L21.3523 11.9957L19.1103 10.2639C18.9817 10.1772 18.8899 10.0459 18.8525 9.89537C18.8151 9.74487 18.8349 9.58586 18.9079 9.44907L20.0289 7.33587L17.4932 7.0762C17.3508 7.06129 17.2178 6.99777 17.1167 6.89634C17.0156 6.7949 16.9525 6.66174 16.9381 6.51925L16.6569 3.85268L14.1302 4.77496C14.004 4.82184 13.866 4.82659 13.7369 4.78849C13.6077 4.7504 13.4944 4.67151 13.4139 4.56364L11.9669 2.61162L10.5701 4.23592C10.4944 4.32387 10.3956 4.38892 10.2848 4.42372C10.1741 4.45853 10.0558 4.46171 9.94337 4.43291L7.35751 3.77567L7.07457 6.51208C7.06162 6.65566 6.99916 6.79026 6.89789 6.89285C6.79661 6.99544 6.66282 7.05962 6.51943 7.07441L3.86552 7.3502Z" fill="black"/> 
            </svg>